<mxfile host="Electron" agent="Mozilla/5.0 (Macintosh; Intel Mac OS X 10_15_7) AppleWebKit/537.36 (KHTML, like Gecko) draw.io/28.1.2 Chrome/138.0.7204.243 Electron/37.4.0 Safari/537.36" version="28.1.2">
  <diagram name="Page-1" id="1_cTGq-pVM5C3bon6cgR">
    <mxGraphModel dx="1018" dy="604" grid="1" gridSize="10" guides="1" tooltips="1" connect="1" arrows="1" fold="1" page="1" pageScale="1" pageWidth="850" pageHeight="1100" math="0" shadow="0">
      <root>
        <mxCell id="0" />
        <mxCell id="1" parent="0" />
        <mxCell id="duh_t73eTv8i38Wkvh4T-13" style="edgeStyle=orthogonalEdgeStyle;rounded=0;orthogonalLoop=1;jettySize=auto;html=1;entryX=0;entryY=0.25;entryDx=0;entryDy=0;" edge="1" parent="1" source="duh_t73eTv8i38Wkvh4T-3" target="duh_t73eTv8i38Wkvh4T-7">
          <mxGeometry relative="1" as="geometry" />
        </mxCell>
        <mxCell id="duh_t73eTv8i38Wkvh4T-3" value="Q" style="whiteSpace=wrap;html=1;aspect=fixed;fontStyle=1;fillColor=#d5e8d4;strokeColor=#82b366;gradientColor=#97d077;" vertex="1" parent="1">
          <mxGeometry x="219" y="160" width="80" height="80" as="geometry" />
        </mxCell>
        <mxCell id="duh_t73eTv8i38Wkvh4T-15" style="edgeStyle=orthogonalEdgeStyle;rounded=0;orthogonalLoop=1;jettySize=auto;html=1;entryX=0;entryY=0.5;entryDx=0;entryDy=0;" edge="1" parent="1" source="duh_t73eTv8i38Wkvh4T-4" target="duh_t73eTv8i38Wkvh4T-7">
          <mxGeometry relative="1" as="geometry" />
        </mxCell>
        <mxCell id="duh_t73eTv8i38Wkvh4T-4" value="V" style="whiteSpace=wrap;html=1;aspect=fixed;fontStyle=1;fillColor=#d5e8d4;strokeColor=#82b366;gradientColor=#97d077;" vertex="1" parent="1">
          <mxGeometry x="219" y="360" width="80" height="80" as="geometry" />
        </mxCell>
        <mxCell id="duh_t73eTv8i38Wkvh4T-14" style="edgeStyle=orthogonalEdgeStyle;rounded=0;orthogonalLoop=1;jettySize=auto;html=1;" edge="1" parent="1" source="duh_t73eTv8i38Wkvh4T-5">
          <mxGeometry relative="1" as="geometry">
            <mxPoint x="370" y="300" as="targetPoint" />
          </mxGeometry>
        </mxCell>
        <mxCell id="duh_t73eTv8i38Wkvh4T-5" value="K" style="whiteSpace=wrap;html=1;aspect=fixed;fontStyle=1;fillColor=#d5e8d4;strokeColor=#82b366;gradientColor=#97d077;" vertex="1" parent="1">
          <mxGeometry x="219" y="260" width="80" height="80" as="geometry" />
        </mxCell>
        <mxCell id="duh_t73eTv8i38Wkvh4T-10" value="" style="edgeStyle=orthogonalEdgeStyle;rounded=0;orthogonalLoop=1;jettySize=auto;html=1;" edge="1" parent="1" source="duh_t73eTv8i38Wkvh4T-6" target="duh_t73eTv8i38Wkvh4T-5">
          <mxGeometry relative="1" as="geometry" />
        </mxCell>
        <mxCell id="duh_t73eTv8i38Wkvh4T-11" style="edgeStyle=orthogonalEdgeStyle;rounded=0;orthogonalLoop=1;jettySize=auto;html=1;entryX=0;entryY=0.75;entryDx=0;entryDy=0;" edge="1" parent="1" source="duh_t73eTv8i38Wkvh4T-6" target="duh_t73eTv8i38Wkvh4T-3">
          <mxGeometry relative="1" as="geometry" />
        </mxCell>
        <mxCell id="duh_t73eTv8i38Wkvh4T-6" value="&lt;b&gt;Input Features&lt;/b&gt;" style="rounded=0;whiteSpace=wrap;html=1;fillColor=#b1ddf0;strokeColor=#10739e;" vertex="1" parent="1">
          <mxGeometry x="40" y="270" width="120" height="60" as="geometry" />
        </mxCell>
        <mxCell id="duh_t73eTv8i38Wkvh4T-16" style="edgeStyle=orthogonalEdgeStyle;rounded=0;orthogonalLoop=1;jettySize=auto;html=1;entryX=0;entryY=0.5;entryDx=0;entryDy=0;" edge="1" parent="1" source="duh_t73eTv8i38Wkvh4T-7" target="duh_t73eTv8i38Wkvh4T-8">
          <mxGeometry relative="1" as="geometry" />
        </mxCell>
        <mxCell id="duh_t73eTv8i38Wkvh4T-7" value="&lt;b&gt;Attention Computation&lt;/b&gt;" style="rounded=1;whiteSpace=wrap;html=1;fillColor=#fad7ac;strokeColor=#b46504;" vertex="1" parent="1">
          <mxGeometry x="370" y="277" width="120" height="60" as="geometry" />
        </mxCell>
        <mxCell id="duh_t73eTv8i38Wkvh4T-17" style="edgeStyle=orthogonalEdgeStyle;rounded=0;orthogonalLoop=1;jettySize=auto;html=1;entryX=0.5;entryY=0;entryDx=0;entryDy=0;" edge="1" parent="1" source="duh_t73eTv8i38Wkvh4T-8" target="duh_t73eTv8i38Wkvh4T-9">
          <mxGeometry relative="1" as="geometry" />
        </mxCell>
        <mxCell id="duh_t73eTv8i38Wkvh4T-8" value="&lt;b&gt;Concat Heads&lt;/b&gt;" style="rounded=1;whiteSpace=wrap;html=1;fillColor=#bac8d3;strokeColor=#23445d;" vertex="1" parent="1">
          <mxGeometry x="544" y="277" width="120" height="60" as="geometry" />
        </mxCell>
        <mxCell id="duh_t73eTv8i38Wkvh4T-9" value="&lt;b&gt;Output&lt;/b&gt;" style="rounded=1;whiteSpace=wrap;html=1;fillColor=#f5f5f5;strokeColor=#666666;gradientColor=#b3b3b3;" vertex="1" parent="1">
          <mxGeometry x="544" y="380" width="120" height="60" as="geometry" />
        </mxCell>
        <mxCell id="duh_t73eTv8i38Wkvh4T-12" style="edgeStyle=orthogonalEdgeStyle;rounded=0;orthogonalLoop=1;jettySize=auto;html=1;entryX=-0.012;entryY=0.588;entryDx=0;entryDy=0;entryPerimeter=0;" edge="1" parent="1" source="duh_t73eTv8i38Wkvh4T-6" target="duh_t73eTv8i38Wkvh4T-4">
          <mxGeometry relative="1" as="geometry" />
        </mxCell>
        <mxCell id="duh_t73eTv8i38Wkvh4T-18" value="&lt;b&gt;&lt;font style=&quot;font-size: 13px;&quot;&gt;Multi-head Attention Mechanism&lt;/font&gt;&lt;/b&gt;" style="text;html=1;align=center;verticalAlign=middle;whiteSpace=wrap;rounded=0;" vertex="1" parent="1">
          <mxGeometry x="185" y="100" width="230" height="30" as="geometry" />
        </mxCell>
        <mxCell id="duh_t73eTv8i38Wkvh4T-19" value="&lt;i&gt;Multi-head(Q,K,V) = Concat(Head1,...,Headn)W^O&lt;/i&gt;" style="rounded=0;whiteSpace=wrap;html=1;fillColor=#bac8d3;strokeColor=#23445d;" vertex="1" parent="1">
          <mxGeometry x="170" y="520" width="250" height="40" as="geometry" />
        </mxCell>
        <mxCell id="duh_t73eTv8i38Wkvh4T-20" value="&lt;i&gt;Attention(Q,K,V) = softmax(QK^T/sqrt(d_k))V&lt;/i&gt;" style="rounded=0;whiteSpace=wrap;html=1;fillColor=#fad7ac;strokeColor=#b46504;" vertex="1" parent="1">
          <mxGeometry x="171" y="470" width="250" height="40" as="geometry" />
        </mxCell>
      </root>
    </mxGraphModel>
  </diagram>
</mxfile>
